# xmcd
#
# Track frame offsets:
# 150
# 13959
# 25284
# 36557
# 47902
# 64302
# 76663
# 89520
# 103295
# 115351
#
# Disc length: 1778 seconds
#
#
# Revision: 0
# Processed by: cddbd v1.5.1PL0 Copyright (c) Steve Scherf et al.
# Submitted via: FreeRIP 2.931 
#
DISCID=8c06f00a
DTITLE=Lewis Family - One Rose
DYEAR=2005
DGENRE=Bluegrass
TTITLE0=One Rose
TTITLE1=Stepping Stones
TTITLE2=I Believe In The Lord
TTITLE3=Get On Board This Old Train
TTITLE4=When We Talk To The Father
TTITLE5=Alright, Alright, Alright
TTITLE6=When I Got Down On My Knees
TTITLE7=The Lord Is A Busy Man
TTITLE8=Silver Lining
TTITLE9=If Jesus Come Back On A Sunday
EXTD=
EXTT0=
EXTT1=
EXTT2=
EXTT3=
EXTT4=
EXTT5=
EXTT6=
EXTT7=
EXTT8=
EXTT9=
PLAYORDER=
